<?xml version="1.0" encoding="UTF-8" standalone="no"?>
<!DOCTYPE svg PUBLIC "-//W3C//DTD SVG 1.1//EN"
 "http://www.w3.org/Graphics/SVG/1.1/DTD/svg11.dtd">
<!-- Generated by graphviz version 2.36.0 (20140111.2315)
 -->
<!-- Title: G Pages: 1 -->
<svg width="498pt" height="744pt"
 viewBox="0.00 0.00 498.00 744.00" xmlns="http://www.w3.org/2000/svg" xmlns:xlink="http://www.w3.org/1999/xlink">
<g id="graph0" class="graph" transform="scale(1 1) rotate(0) translate(4 740)">
<title>G</title>
<polygon fill="white" stroke="none" points="-4,4 -4,-740 494,-740 494,4 -4,4"/>
<g id="clust1" class="cluster"><title>cluster_Global</title>
<path fill="none" stroke="gray" d="M20,-8C20,-8 470,-8 470,-8 476,-8 482,-14 482,-20 482,-20 482,-716 482,-716 482,-722 476,-728 470,-728 470,-728 20,-728 20,-728 14,-728 8,-722 8,-716 8,-716 8,-20 8,-20 8,-14 14,-8 20,-8"/>
<text text-anchor="middle" x="245" y="-715.2" font-family="Times,serif" font-size="11.00" fill="gray">Global</text>
</g>
<!-- \\Model_SizeerCom -->
<g id="node1" class="node"><title>\\Model_SizeerCom</title>
<polygon fill="none" stroke="black" points="467,-700 349,-700 349,-664 467,-664 467,-700"/>
<text text-anchor="middle" x="408" y="-679.2" font-family="Courier,monospace" font-size="11.00">Model_SizeerCom</text>
</g>
<!-- \\Model_XML -->
<g id="node5" class="node"><title>\\Model_XML</title>
<polygon fill="none" stroke="black" points="263,-619 179,-619 179,-583 263,-583 263,-619"/>
<text text-anchor="start" x="187" y="-604.2" font-family="Courier,monospace" font-size="11.00">«abstract»</text>
<text text-anchor="start" x="190.5" y="-592.2" font-family="Courier,monospace" font-size="11.00">Model_XML</text>
</g>
<!-- \\Model_SizeerCom&#45;&gt;\\Model_XML -->
<g id="edge1" class="edge"><title>\\Model_SizeerCom&#45;&gt;\\Model_XML</title>
<path fill="none" stroke="black" d="M362.871,-663.873C355.875,-660.94 348.729,-657.911 342,-655 318.438,-644.808 292.44,-633.159 270.684,-623.295"/>
<polygon fill="none" stroke="black" points="271.879,-619.994 261.326,-619.045 268.983,-626.367 271.879,-619.994"/>
</g>
<!-- \\ProductsEmail -->
<g id="node2" class="node"><title>\\ProductsEmail</title>
<polygon fill="none" stroke="black" points="460,-646 356,-646 356,-610 460,-610 460,-646"/>
<text text-anchor="middle" x="408" y="-625.2" font-family="Courier,monospace" font-size="11.00">ProductsEmail</text>
</g>
<!-- \\Model_Sqlite -->
<g id="node3" class="node"><title>\\Model_Sqlite</title>
<polygon fill="none" stroke="black" points="270,-565 172,-565 172,-529 270,-529 270,-565"/>
<text text-anchor="start" x="187" y="-550.2" font-family="Courier,monospace" font-size="11.00">«abstract»</text>
<text text-anchor="start" x="180" y="-538.2" font-family="Courier,monospace" font-size="11.00">Model_Sqlite</text>
</g>
<!-- \\Model -->
<g id="node7" class="node"><title>\\Model</title>
<polygon fill="none" stroke="black" points="100,-592 16,-592 16,-556 100,-556 100,-592"/>
<text text-anchor="start" x="24" y="-577.2" font-family="Courier,monospace" font-size="11.00">«abstract»</text>
<text text-anchor="start" x="41" y="-565.2" font-family="Courier,monospace" font-size="11.00">Model</text>
</g>
<!-- \\Model_Sqlite&#45;&gt;\\Model -->
<g id="edge2" class="edge"><title>\\Model_Sqlite&#45;&gt;\\Model</title>
<path fill="none" stroke="black" d="M171.695,-555.101C152.291,-558.355 129.9,-562.11 110.215,-565.411"/>
<polygon fill="none" stroke="black" points="109.48,-561.985 100.197,-567.091 110.638,-568.889 109.48,-561.985"/>
</g>
<!-- \\Controller_Api -->
<g id="node4" class="node"><title>\\Controller_Api</title>
<polygon fill="none" stroke="black" points="463.5,-376 352.5,-376 352.5,-340 463.5,-340 463.5,-376"/>
<text text-anchor="middle" x="408" y="-355.2" font-family="Courier,monospace" font-size="11.00">Controller_Api</text>
</g>
<!-- \\Controller -->
<g id="node19" class="node"><title>\\Controller</title>
<polygon fill="none" stroke="black" points="263,-214 179,-214 179,-178 263,-178 263,-214"/>
<text text-anchor="start" x="187" y="-199.2" font-family="Courier,monospace" font-size="11.00">«abstract»</text>
<text text-anchor="start" x="187" y="-187.2" font-family="Courier,monospace" font-size="11.00">Controller</text>
</g>
<!-- \\Controller_Api&#45;&gt;\\Controller -->
<g id="edge3" class="edge"><title>\\Controller_Api&#45;&gt;\\Controller</title>
<path fill="none" stroke="black" d="M356.784,-339.885C351.61,-337.222 346.578,-334.261 342,-331 299.226,-300.533 261.062,-252.155 239.781,-222.338"/>
<polygon fill="none" stroke="black" points="242.597,-220.257 233.985,-214.086 236.869,-224.28 242.597,-220.257"/>
</g>
<!-- \\Model_XML&#45;&gt;\\Model -->
<g id="edge4" class="edge"><title>\\Model_XML&#45;&gt;\\Model</title>
<path fill="none" stroke="black" d="M178.956,-594.117C158.031,-590.608 132.381,-586.306 110.178,-582.583"/>
<polygon fill="none" stroke="black" points="110.69,-579.12 100.248,-580.917 109.532,-586.023 110.69,-579.12"/>
</g>
<!-- \\Zip -->
<g id="node6" class="node"><title>\\Zip</title>
<polygon fill="none" stroke="black" points="435,-538 381,-538 381,-502 435,-502 435,-538"/>
<text text-anchor="middle" x="408" y="-517.2" font-family="Courier,monospace" font-size="11.00">Zip</text>
</g>
<!-- \\Controller_Main -->
<g id="node8" class="node"><title>\\Controller_Main</title>
<polygon fill="none" stroke="black" points="467,-52 349,-52 349,-16 467,-16 467,-52"/>
<text text-anchor="middle" x="408" y="-31.2" font-family="Courier,monospace" font-size="11.00">Controller_Main</text>
</g>
<!-- \\Controller_Main&#45;&gt;\\Controller -->
<g id="edge5" class="edge"><title>\\Controller_Main&#45;&gt;\\Controller</title>
<path fill="none" stroke="black" d="M356.784,-52.1147C351.61,-54.778 346.578,-57.7389 342,-61 299.226,-91.4674 261.062,-139.845 239.781,-169.662"/>
<polygon fill="none" stroke="black" points="236.869,-167.72 233.985,-177.914 242.597,-171.743 236.869,-167.72"/>
</g>
<!-- \\Model_Shops -->
<g id="node9" class="node"><title>\\Model_Shops</title>
<polygon fill="none" stroke="black" points="453.5,-484 362.5,-484 362.5,-448 453.5,-448 453.5,-484"/>
<text text-anchor="middle" x="408" y="-463.2" font-family="Courier,monospace" font-size="11.00">Model_Shops</text>
</g>
<!-- \\Model_Shops&#45;&gt;\\Model_Sqlite -->
<g id="edge6" class="edge"><title>\\Model_Shops&#45;&gt;\\Model_Sqlite</title>
<path fill="none" stroke="black" d="M362.871,-484.127C355.875,-487.06 348.729,-490.089 342,-493 318.438,-503.192 292.44,-514.841 270.684,-524.705"/>
<polygon fill="none" stroke="black" points="268.983,-521.633 261.326,-528.955 271.879,-528.006 268.983,-521.633"/>
</g>
<!-- \\Model_Salons -->
<g id="node10" class="node"><title>\\Model_Salons</title>
<polygon fill="none" stroke="black" points="457,-592 359,-592 359,-556 457,-556 457,-592"/>
<text text-anchor="middle" x="408" y="-571.2" font-family="Courier,monospace" font-size="11.00">Model_Salons</text>
</g>
<!-- \\Model_Salons&#45;&gt;\\Model_Sqlite -->
<g id="edge7" class="edge"><title>\\Model_Salons&#45;&gt;\\Model_Sqlite</title>
<path fill="none" stroke="black" d="M358.876,-566.977C334.882,-563.475 305.667,-559.211 280.399,-555.523"/>
<polygon fill="none" stroke="black" points="280.604,-552.016 270.204,-554.035 279.593,-558.943 280.604,-552.016"/>
</g>
<!-- \\Model_Products -->
<g id="node11" class="node"><title>\\Model_Products</title>
<polygon fill="none" stroke="black" points="463.5,-430 352.5,-430 352.5,-394 463.5,-394 463.5,-430"/>
<text text-anchor="middle" x="408" y="-409.2" font-family="Courier,monospace" font-size="11.00">Model_Products</text>
</g>
<!-- \\Model_CSV -->
<g id="node13" class="node"><title>\\Model_CSV</title>
<polygon fill="none" stroke="black" points="263,-457 179,-457 179,-421 263,-421 263,-457"/>
<text text-anchor="start" x="187" y="-442.2" font-family="Courier,monospace" font-size="11.00">«abstract»</text>
<text text-anchor="start" x="190.5" y="-430.2" font-family="Courier,monospace" font-size="11.00">Model_CSV</text>
</g>
<!-- \\Model_Products&#45;&gt;\\Model_CSV -->
<g id="edge8" class="edge"><title>\\Model_Products&#45;&gt;\\Model_CSV</title>
<path fill="none" stroke="black" d="M352.494,-419.955C327.501,-423.603 298.028,-427.904 273.421,-431.495"/>
<polygon fill="none" stroke="black" points="272.591,-428.079 263.201,-432.987 273.602,-435.006 272.591,-428.079"/>
</g>
<!-- \\Model_Auth -->
<g id="node12" class="node"><title>\\Model_Auth</title>
<polygon fill="none" stroke="black" points="263,-673 179,-673 179,-637 263,-637 263,-673"/>
<text text-anchor="middle" x="221" y="-652.2" font-family="Courier,monospace" font-size="11.00">Model_Auth</text>
</g>
<!-- \\Model_Auth&#45;&gt;\\Model -->
<g id="edge9" class="edge"><title>\\Model_Auth&#45;&gt;\\Model</title>
<path fill="none" stroke="black" d="M183.868,-636.822C160.253,-624.941 129.23,-609.333 104.014,-596.647"/>
<polygon fill="none" stroke="black" points="105.517,-593.485 95.011,-592.117 102.371,-599.738 105.517,-593.485"/>
</g>
<!-- \\Model_CSV&#45;&gt;\\Model -->
<g id="edge10" class="edge"><title>\\Model_CSV&#45;&gt;\\Model</title>
<path fill="none" stroke="black" d="M198.287,-457.207C170.001,-480.925 120.422,-522.497 88.6801,-549.113"/>
<polygon fill="none" stroke="black" points="86.0395,-546.759 80.6257,-555.867 90.5372,-552.123 86.0395,-546.759"/>
</g>
<!-- \\Files -->
<g id="node14" class="node"><title>\\Files</title>
<polygon fill="none" stroke="black" points="435,-268 381,-268 381,-232 435,-232 435,-268"/>
<text text-anchor="middle" x="408" y="-247.2" font-family="Courier,monospace" font-size="11.00">Files</text>
</g>
<!-- \\Controller_Desc -->
<g id="node15" class="node"><title>\\Controller_Desc</title>
<polygon fill="none" stroke="black" points="467,-322 349,-322 349,-286 467,-286 467,-322"/>
<text text-anchor="middle" x="408" y="-301.2" font-family="Courier,monospace" font-size="11.00">Controller_Desc</text>
</g>
<!-- \\Controller_Desc&#45;&gt;\\Controller -->
<g id="edge11" class="edge"><title>\\Controller_Desc&#45;&gt;\\Controller</title>
<path fill="none" stroke="black" d="M360.31,-285.938C354.062,-283.136 347.811,-280.127 342,-277 310.854,-260.238 277.691,-237.429 254.139,-220.286"/>
<polygon fill="none" stroke="black" points="256.05,-217.347 245.918,-214.248 251.906,-222.989 256.05,-217.347"/>
</g>
<!-- \\View -->
<g id="node16" class="node"><title>\\View</title>
<polygon fill="none" stroke="black" points="435,-160 381,-160 381,-124 435,-124 435,-160"/>
<text text-anchor="middle" x="408" y="-139.2" font-family="Courier,monospace" font-size="11.00">View</text>
</g>
<!-- \\Controller_Salons -->
<g id="node17" class="node"><title>\\Controller_Salons</title>
<polygon fill="none" stroke="black" points="473.5,-214 342.5,-214 342.5,-178 473.5,-178 473.5,-214"/>
<text text-anchor="middle" x="408" y="-193.2" font-family="Courier,monospace" font-size="11.00">Controller_Salons</text>
</g>
<!-- \\Controller_Salons&#45;&gt;\\Controller -->
<g id="edge12" class="edge"><title>\\Controller_Salons&#45;&gt;\\Controller</title>
<path fill="none" stroke="black" d="M342.296,-196C319.731,-196 294.733,-196 273.397,-196"/>
<polygon fill="none" stroke="black" points="273.244,-192.5 263.244,-196 273.244,-199.5 273.244,-192.5"/>
</g>
<!-- \\Controller_Shops -->
<g id="node18" class="node"><title>\\Controller_Shops</title>
<polygon fill="none" stroke="black" points="470.5,-106 345.5,-106 345.5,-70 470.5,-70 470.5,-106"/>
<text text-anchor="middle" x="408" y="-85.2" font-family="Courier,monospace" font-size="11.00">Controller_Shops</text>
</g>
<!-- \\Controller_Shops&#45;&gt;\\Controller -->
<g id="edge13" class="edge"><title>\\Controller_Shops&#45;&gt;\\Controller</title>
<path fill="none" stroke="black" d="M360.31,-106.062C354.062,-108.864 347.811,-111.873 342,-115 310.854,-131.762 277.691,-154.571 254.139,-171.714"/>
<polygon fill="none" stroke="black" points="251.906,-169.011 245.918,-177.752 256.05,-174.653 251.906,-169.011"/>
</g>
</g>
</svg>
